<mxfile host="app.diagrams.net" modified="2024-06-06T12:38:51.175Z" agent="Mozilla/5.0 (Windows NT 10.0; Win64; x64) AppleWebKit/537.36 (KHTML, like Gecko) Chrome/125.0.0.0 Safari/537.36" etag="EYocN7O_kMQKkjk_zZ_0" version="24.4.7" type="device">
  <diagram name="Pagina-1" id="6tDuZ4FgANnlUKks3V_m">
    <mxGraphModel dx="1434" dy="780" grid="1" gridSize="10" guides="1" tooltips="1" connect="1" arrows="1" fold="1" page="1" pageScale="1" pageWidth="827" pageHeight="1169" math="0" shadow="0">
      <root>
        <mxCell id="0" />
        <mxCell id="1" parent="0" />
        <mxCell id="NVnrfaFFVgzaQDmNKKyq-1" value="pokemon_pics" style="shape=table;startSize=30;container=1;collapsible=1;childLayout=tableLayout;fixedRows=1;rowLines=0;fontStyle=1;align=center;resizeLast=1;html=1;" vertex="1" parent="1">
          <mxGeometry x="530" y="960" width="180" height="90" as="geometry" />
        </mxCell>
        <mxCell id="NVnrfaFFVgzaQDmNKKyq-2" value="" style="shape=tableRow;horizontal=0;startSize=0;swimlaneHead=0;swimlaneBody=0;fillColor=none;collapsible=0;dropTarget=0;points=[[0,0.5],[1,0.5]];portConstraint=eastwest;top=0;left=0;right=0;bottom=1;" vertex="1" parent="NVnrfaFFVgzaQDmNKKyq-1">
          <mxGeometry y="30" width="180" height="30" as="geometry" />
        </mxCell>
        <mxCell id="NVnrfaFFVgzaQDmNKKyq-3" value="PK" style="shape=partialRectangle;connectable=0;fillColor=none;top=0;left=0;bottom=0;right=0;fontStyle=1;overflow=hidden;whiteSpace=wrap;html=1;" vertex="1" parent="NVnrfaFFVgzaQDmNKKyq-2">
          <mxGeometry width="30" height="30" as="geometry">
            <mxRectangle width="30" height="30" as="alternateBounds" />
          </mxGeometry>
        </mxCell>
        <mxCell id="NVnrfaFFVgzaQDmNKKyq-4" value="name_pkm" style="shape=partialRectangle;connectable=0;fillColor=none;top=0;left=0;bottom=0;right=0;align=left;spacingLeft=6;fontStyle=5;overflow=hidden;whiteSpace=wrap;html=1;" vertex="1" parent="NVnrfaFFVgzaQDmNKKyq-2">
          <mxGeometry x="30" width="150" height="30" as="geometry">
            <mxRectangle width="150" height="30" as="alternateBounds" />
          </mxGeometry>
        </mxCell>
        <mxCell id="NVnrfaFFVgzaQDmNKKyq-5" value="" style="shape=tableRow;horizontal=0;startSize=0;swimlaneHead=0;swimlaneBody=0;fillColor=none;collapsible=0;dropTarget=0;points=[[0,0.5],[1,0.5]];portConstraint=eastwest;top=0;left=0;right=0;bottom=0;" vertex="1" parent="NVnrfaFFVgzaQDmNKKyq-1">
          <mxGeometry y="60" width="180" height="30" as="geometry" />
        </mxCell>
        <mxCell id="NVnrfaFFVgzaQDmNKKyq-6" value="" style="shape=partialRectangle;connectable=0;fillColor=none;top=0;left=0;bottom=0;right=0;editable=1;overflow=hidden;whiteSpace=wrap;html=1;" vertex="1" parent="NVnrfaFFVgzaQDmNKKyq-5">
          <mxGeometry width="30" height="30" as="geometry">
            <mxRectangle width="30" height="30" as="alternateBounds" />
          </mxGeometry>
        </mxCell>
        <mxCell id="NVnrfaFFVgzaQDmNKKyq-7" value="img" style="shape=partialRectangle;connectable=0;fillColor=none;top=0;left=0;bottom=0;right=0;align=left;spacingLeft=6;overflow=hidden;whiteSpace=wrap;html=1;" vertex="1" parent="NVnrfaFFVgzaQDmNKKyq-5">
          <mxGeometry x="30" width="150" height="30" as="geometry">
            <mxRectangle width="150" height="30" as="alternateBounds" />
          </mxGeometry>
        </mxCell>
        <mxCell id="NVnrfaFFVgzaQDmNKKyq-39" style="edgeStyle=orthogonalEdgeStyle;rounded=0;orthogonalLoop=1;jettySize=auto;html=1;exitX=0.5;exitY=0;exitDx=0;exitDy=0;exitPerimeter=0;entryX=0.5;entryY=1;entryDx=0;entryDy=0;" edge="1" parent="1" source="NVnrfaFFVgzaQDmNKKyq-27" target="NVnrfaFFVgzaQDmNKKyq-38">
          <mxGeometry relative="1" as="geometry" />
        </mxCell>
        <mxCell id="NVnrfaFFVgzaQDmNKKyq-27" value="" style="strokeWidth=2;html=1;shape=mxgraph.flowchart.database;whiteSpace=wrap;" vertex="1" parent="1">
          <mxGeometry x="280" y="920" width="70" height="80" as="geometry" />
        </mxCell>
        <mxCell id="NVnrfaFFVgzaQDmNKKyq-29" style="edgeStyle=orthogonalEdgeStyle;rounded=0;orthogonalLoop=1;jettySize=auto;html=1;exitX=1;exitY=0.85;exitDx=0;exitDy=0;exitPerimeter=0;entryX=0.006;entryY=0.133;entryDx=0;entryDy=0;entryPerimeter=0;" edge="1" parent="1" source="NVnrfaFFVgzaQDmNKKyq-27" target="NVnrfaFFVgzaQDmNKKyq-1">
          <mxGeometry relative="1" as="geometry" />
        </mxCell>
        <mxCell id="NVnrfaFFVgzaQDmNKKyq-30" value="PokemonPic" style="swimlane;fontStyle=1;align=center;verticalAlign=top;childLayout=stackLayout;horizontal=1;startSize=26;horizontalStack=0;resizeParent=1;resizeParentMax=0;resizeLast=0;collapsible=1;marginBottom=0;whiteSpace=wrap;html=1;" vertex="1" parent="1">
          <mxGeometry x="560" y="690" width="160" height="112" as="geometry" />
        </mxCell>
        <mxCell id="NVnrfaFFVgzaQDmNKKyq-31" value="- img: String" style="text;strokeColor=none;fillColor=none;align=left;verticalAlign=top;spacingLeft=4;spacingRight=4;overflow=hidden;rotatable=0;points=[[0,0.5],[1,0.5]];portConstraint=eastwest;whiteSpace=wrap;html=1;" vertex="1" parent="NVnrfaFFVgzaQDmNKKyq-30">
          <mxGeometry y="26" width="160" height="26" as="geometry" />
        </mxCell>
        <mxCell id="NVnrfaFFVgzaQDmNKKyq-35" value="- name: String" style="text;strokeColor=none;fillColor=none;align=left;verticalAlign=top;spacingLeft=4;spacingRight=4;overflow=hidden;rotatable=0;points=[[0,0.5],[1,0.5]];portConstraint=eastwest;whiteSpace=wrap;html=1;" vertex="1" parent="NVnrfaFFVgzaQDmNKKyq-30">
          <mxGeometry y="52" width="160" height="26" as="geometry" />
        </mxCell>
        <mxCell id="NVnrfaFFVgzaQDmNKKyq-32" value="" style="line;strokeWidth=1;fillColor=none;align=left;verticalAlign=middle;spacingTop=-1;spacingLeft=3;spacingRight=3;rotatable=0;labelPosition=right;points=[];portConstraint=eastwest;strokeColor=inherit;" vertex="1" parent="NVnrfaFFVgzaQDmNKKyq-30">
          <mxGeometry y="78" width="160" height="8" as="geometry" />
        </mxCell>
        <mxCell id="NVnrfaFFVgzaQDmNKKyq-33" value="+ Getter + Setters" style="text;strokeColor=none;fillColor=none;align=left;verticalAlign=top;spacingLeft=4;spacingRight=4;overflow=hidden;rotatable=0;points=[[0,0.5],[1,0.5]];portConstraint=eastwest;whiteSpace=wrap;html=1;" vertex="1" parent="NVnrfaFFVgzaQDmNKKyq-30">
          <mxGeometry y="86" width="160" height="26" as="geometry" />
        </mxCell>
        <mxCell id="NVnrfaFFVgzaQDmNKKyq-34" value="" style="line;strokeWidth=1;fillColor=none;align=left;verticalAlign=middle;spacingTop=-1;spacingLeft=3;spacingRight=3;rotatable=0;labelPosition=right;points=[];portConstraint=eastwest;strokeColor=inherit;" vertex="1" parent="1">
          <mxGeometry x="14" y="870" width="800" height="8" as="geometry" />
        </mxCell>
        <mxCell id="NVnrfaFFVgzaQDmNKKyq-36" value="&lt;font style=&quot;font-size: 17px;&quot;&gt;&lt;b&gt;@Entity&lt;/b&gt;&lt;/font&gt;" style="text;html=1;align=center;verticalAlign=middle;resizable=0;points=[];autosize=1;strokeColor=none;fillColor=none;" vertex="1" parent="1">
          <mxGeometry x="590" y="660" width="90" height="30" as="geometry" />
        </mxCell>
        <mxCell id="NVnrfaFFVgzaQDmNKKyq-37" value="entities" style="shape=folder;fontStyle=1;tabWidth=80;tabHeight=30;tabPosition=left;html=1;boundedLbl=1;whiteSpace=wrap;" vertex="1" parent="1">
          <mxGeometry x="560" y="560" width="150" height="80" as="geometry" />
        </mxCell>
        <mxCell id="NVnrfaFFVgzaQDmNKKyq-38" value="«interface»&lt;br&gt;&lt;b&gt;PokemonPicDAO&lt;/b&gt;" style="html=1;whiteSpace=wrap;" vertex="1" parent="1">
          <mxGeometry x="260" y="650" width="110" height="50" as="geometry" />
        </mxCell>
        <mxCell id="NVnrfaFFVgzaQDmNKKyq-40" style="edgeStyle=orthogonalEdgeStyle;rounded=0;orthogonalLoop=1;jettySize=auto;html=1;exitX=1;exitY=0.5;exitDx=0;exitDy=0;entryX=0.019;entryY=0.116;entryDx=0;entryDy=0;entryPerimeter=0;" edge="1" parent="1" source="NVnrfaFFVgzaQDmNKKyq-38" target="NVnrfaFFVgzaQDmNKKyq-30">
          <mxGeometry relative="1" as="geometry" />
        </mxCell>
        <mxCell id="NVnrfaFFVgzaQDmNKKyq-41" value="" style="endArrow=none;html=1;rounded=0;" edge="1" parent="1">
          <mxGeometry width="50" height="50" relative="1" as="geometry">
            <mxPoint y="480" as="sourcePoint" />
            <mxPoint x="820" y="480" as="targetPoint" />
          </mxGeometry>
        </mxCell>
        <mxCell id="NVnrfaFFVgzaQDmNKKyq-42" value="PokemonPicService" style="swimlane;fontStyle=1;align=center;verticalAlign=top;childLayout=stackLayout;horizontal=1;startSize=26;horizontalStack=0;resizeParent=1;resizeParentMax=0;resizeLast=0;collapsible=1;marginBottom=0;whiteSpace=wrap;html=1;" vertex="1" parent="1">
          <mxGeometry x="520" y="310" width="280" height="140" as="geometry" />
        </mxCell>
        <mxCell id="NVnrfaFFVgzaQDmNKKyq-45" value="" style="line;strokeWidth=1;fillColor=none;align=left;verticalAlign=middle;spacingTop=-1;spacingLeft=3;spacingRight=3;rotatable=0;labelPosition=right;points=[];portConstraint=eastwest;strokeColor=inherit;" vertex="1" parent="NVnrfaFFVgzaQDmNKKyq-42">
          <mxGeometry y="26" width="280" height="8" as="geometry" />
        </mxCell>
        <mxCell id="NVnrfaFFVgzaQDmNKKyq-46" value="+ getPokemonPics(): List&amp;lt;PolemonPic&amp;gt;" style="text;strokeColor=none;fillColor=none;align=left;verticalAlign=top;spacingLeft=4;spacingRight=4;overflow=hidden;rotatable=0;points=[[0,0.5],[1,0.5]];portConstraint=eastwest;whiteSpace=wrap;html=1;" vertex="1" parent="NVnrfaFFVgzaQDmNKKyq-42">
          <mxGeometry y="34" width="280" height="46" as="geometry" />
        </mxCell>
        <mxCell id="NVnrfaFFVgzaQDmNKKyq-47" value="+ getPokemonByName(String name): PokemonPic&amp;nbsp;" style="text;strokeColor=none;fillColor=none;align=left;verticalAlign=top;spacingLeft=4;spacingRight=4;overflow=hidden;rotatable=0;points=[[0,0.5],[1,0.5]];portConstraint=eastwest;whiteSpace=wrap;html=1;" vertex="1" parent="NVnrfaFFVgzaQDmNKKyq-42">
          <mxGeometry y="80" width="280" height="60" as="geometry" />
        </mxCell>
        <mxCell id="NVnrfaFFVgzaQDmNKKyq-48" value="" style="endArrow=none;html=1;rounded=0;exitX=-0.006;exitY=0;exitDx=0;exitDy=0;exitPerimeter=0;" edge="1" parent="NVnrfaFFVgzaQDmNKKyq-42" source="NVnrfaFFVgzaQDmNKKyq-47">
          <mxGeometry width="50" height="50" relative="1" as="geometry">
            <mxPoint x="-130" y="220" as="sourcePoint" />
            <mxPoint x="160" y="80" as="targetPoint" />
          </mxGeometry>
        </mxCell>
        <mxCell id="NVnrfaFFVgzaQDmNKKyq-49" value="&lt;font style=&quot;font-size: 17px;&quot;&gt;&lt;b&gt;@Service&lt;/b&gt;&lt;/font&gt;" style="text;html=1;align=center;verticalAlign=middle;resizable=0;points=[];autosize=1;strokeColor=none;fillColor=none;" vertex="1" parent="1">
          <mxGeometry x="540" y="270" width="100" height="30" as="geometry" />
        </mxCell>
        <mxCell id="NVnrfaFFVgzaQDmNKKyq-52" style="edgeStyle=orthogonalEdgeStyle;rounded=0;orthogonalLoop=1;jettySize=auto;html=1;exitX=0.5;exitY=1;exitDx=0;exitDy=0;entryX=0.5;entryY=0;entryDx=0;entryDy=0;" edge="1" parent="1" source="NVnrfaFFVgzaQDmNKKyq-50" target="NVnrfaFFVgzaQDmNKKyq-38">
          <mxGeometry relative="1" as="geometry" />
        </mxCell>
        <mxCell id="NVnrfaFFVgzaQDmNKKyq-50" value="«interface»&lt;br&gt;&lt;b&gt;PokemonPicService&lt;/b&gt;" style="html=1;whiteSpace=wrap;" vertex="1" parent="1">
          <mxGeometry x="290" y="340" width="150" height="50" as="geometry" />
        </mxCell>
        <mxCell id="NVnrfaFFVgzaQDmNKKyq-51" value="" style="endArrow=none;dashed=1;html=1;dashPattern=1 3;strokeWidth=2;rounded=0;entryX=0.019;entryY=0.157;entryDx=0;entryDy=0;entryPerimeter=0;exitX=1;exitY=0.5;exitDx=0;exitDy=0;" edge="1" parent="1" source="NVnrfaFFVgzaQDmNKKyq-50" target="NVnrfaFFVgzaQDmNKKyq-42">
          <mxGeometry width="50" height="50" relative="1" as="geometry">
            <mxPoint x="390" y="530" as="sourcePoint" />
            <mxPoint x="440" y="480" as="targetPoint" />
          </mxGeometry>
        </mxCell>
        <mxCell id="NVnrfaFFVgzaQDmNKKyq-53" value="" style="endArrow=none;html=1;rounded=0;" edge="1" parent="1">
          <mxGeometry width="50" height="50" relative="1" as="geometry">
            <mxPoint x="4" y="240" as="sourcePoint" />
            <mxPoint x="824" y="240" as="targetPoint" />
          </mxGeometry>
        </mxCell>
        <mxCell id="NVnrfaFFVgzaQDmNKKyq-54" value="PokemonPicRest" style="swimlane;fontStyle=1;align=center;verticalAlign=top;childLayout=stackLayout;horizontal=1;startSize=26;horizontalStack=0;resizeParent=1;resizeParentMax=0;resizeLast=0;collapsible=1;marginBottom=0;whiteSpace=wrap;html=1;" vertex="1" parent="1">
          <mxGeometry x="555" y="80" width="160" height="60" as="geometry" />
        </mxCell>
        <mxCell id="NVnrfaFFVgzaQDmNKKyq-57" value="" style="line;strokeWidth=1;fillColor=none;align=left;verticalAlign=middle;spacingTop=-1;spacingLeft=3;spacingRight=3;rotatable=0;labelPosition=right;points=[];portConstraint=eastwest;strokeColor=inherit;" vertex="1" parent="NVnrfaFFVgzaQDmNKKyq-54">
          <mxGeometry y="26" width="160" height="8" as="geometry" />
        </mxCell>
        <mxCell id="NVnrfaFFVgzaQDmNKKyq-58" value="+ Getter + Setters" style="text;strokeColor=none;fillColor=none;align=left;verticalAlign=top;spacingLeft=4;spacingRight=4;overflow=hidden;rotatable=0;points=[[0,0.5],[1,0.5]];portConstraint=eastwest;whiteSpace=wrap;html=1;" vertex="1" parent="NVnrfaFFVgzaQDmNKKyq-54">
          <mxGeometry y="34" width="160" height="26" as="geometry" />
        </mxCell>
        <mxCell id="NVnrfaFFVgzaQDmNKKyq-59" value="&lt;font style=&quot;font-size: 17px;&quot;&gt;&lt;b&gt;@RestController&lt;/b&gt;&lt;/font&gt;" style="text;html=1;align=center;verticalAlign=middle;resizable=0;points=[];autosize=1;strokeColor=none;fillColor=none;" vertex="1" parent="1">
          <mxGeometry x="540" y="30" width="160" height="30" as="geometry" />
        </mxCell>
        <mxCell id="NVnrfaFFVgzaQDmNKKyq-60" value="RestController parla automaticamente i JSON" style="text;html=1;align=center;verticalAlign=middle;resizable=0;points=[];autosize=1;strokeColor=none;fillColor=none;" vertex="1" parent="1">
          <mxGeometry x="285" y="18" width="270" height="30" as="geometry" />
        </mxCell>
        <mxCell id="NVnrfaFFVgzaQDmNKKyq-61" style="edgeStyle=orthogonalEdgeStyle;rounded=0;orthogonalLoop=1;jettySize=auto;html=1;exitX=0;exitY=0.5;exitDx=0;exitDy=0;entryX=0.5;entryY=0;entryDx=0;entryDy=0;" edge="1" parent="1" source="NVnrfaFFVgzaQDmNKKyq-58" target="NVnrfaFFVgzaQDmNKKyq-50">
          <mxGeometry relative="1" as="geometry" />
        </mxCell>
        <mxCell id="NVnrfaFFVgzaQDmNKKyq-62" value="repo" style="shape=folder;fontStyle=1;tabWidth=80;tabHeight=30;tabPosition=left;html=1;boundedLbl=1;whiteSpace=wrap;" vertex="1" parent="1">
          <mxGeometry x="40" y="610" width="150" height="80" as="geometry" />
        </mxCell>
        <mxCell id="NVnrfaFFVgzaQDmNKKyq-63" value="services" style="shape=folder;fontStyle=1;tabWidth=80;tabHeight=30;tabPosition=left;html=1;boundedLbl=1;whiteSpace=wrap;" vertex="1" parent="1">
          <mxGeometry x="80" y="300" width="150" height="80" as="geometry" />
        </mxCell>
        <mxCell id="NVnrfaFFVgzaQDmNKKyq-64" value="controllers" style="shape=folder;fontStyle=1;tabWidth=80;tabHeight=30;tabPosition=left;html=1;boundedLbl=1;whiteSpace=wrap;" vertex="1" parent="1">
          <mxGeometry x="100" y="70" width="150" height="80" as="geometry" />
        </mxCell>
      </root>
    </mxGraphModel>
  </diagram>
</mxfile>
